<svg xmlns="http://www.w3.org/2000/svg" width="800" height="600" viewBox="0 0 800 600">
  <rect width="800" height="600" fill="#efe6e0"/>
  <rect x="60" y="50" width="680" height="500" rx="26" fill="#f8f3ef"/>
  <g opacity="0.8">
    <rect x="150" y="110" width="120" height="280" fill="#e7dccc"/>
    <rect x="290" y="110" width="120" height="280" fill="#e7dccc"/>
    <rect x="430" y="110" width="120" height="280" fill="#e7dccc"/>
  </g>
  <g>
    <circle cx="220" cy="170" r="44" fill="#f1c04d"/>
    <circle cx="360" cy="170" r="52" fill="#e15b5b"/>
    <circle cx="500" cy="190" r="42" fill="#f5b5b0"/>
    <circle cx="280" cy="260" r="46" fill="#d54242"/>
    <circle cx="440" cy="260" r="48" fill="#d54242"/>
    <circle cx="580" cy="260" r="40" fill="#f4c14d"/>
  </g>
  <g fill="none" stroke="#3d7e47" stroke-width="12" stroke-linecap="round">
    <path d="M190 260 C200 210, 240 200, 220 150"/>
    <path d="M330 260 C350 200, 390 190, 370 130"/>
    <path d="M470 260 C490 200, 530 200, 510 140"/>
    <path d="M590 260 C610 220, 630 210, 610 160"/>
  </g>
  <text x="400" y="510" text-anchor="middle" fill="#312b2a" font-size="34" font-family="Arial, sans-serif" font-weight="700">Lilac Bloom</text>
</svg>
